<svg width="70" height="70" viewBox="0 0 70 70" fill="none" xmlns="http://www.w3.org/2000/svg">
<path d="M68.5004 22.9C68.5004 22.8 68.4004 22.7 68.4004 22.6C68.2004 22.3 64.4004 16.3 59.6004 16.3L42.7004 16.2L33.7004 4.6C33.5004 4.3 33.1004 4.2 32.8004 4.1L26.4004 4C26.0004 4 25.6004 4.2 25.4004 4.5C25.2004 4.8 25.1004 5.2 25.3004 5.6L29.5004 16H26.9004L37.1004 37L41.4004 29.4L63.7004 29.7C63.8004 29.7 64.0004 29.7 64.1004 29.6L65.1004 29.2C67.8004 28.3 69.2004 25.5 68.5004 22.9Z" fill="#FDD600"/>
<path d="M62.1997 36.2996L39.2997 35.9996C38.1997 35.9996 37.2997 35.0996 37.2997 33.9996C37.2997 32.8996 38.1997 31.9996 39.2997 31.9996L61.7997 32.2996L62.4997 31.9996C63.4997 31.5996 63.9997 30.5996 63.8997 29.5996C62.8997 28.1996 60.2997 25.0996 57.8997 25.0996L15.2997 24.7996C14.6997 24.7996 14.1997 24.4996 13.7997 24.0996L6.39974 15.1996L4.59974 15.2996L6.49974 25.3996C7.19974 28.8996 10.1997 31.4996 13.7997 31.5996L21.9997 31.6996C23.0997 31.6996 23.9997 32.5996 23.9997 33.6996C23.9997 34.7996 23.0997 35.6996 21.9997 35.6996L13.7997 35.5996C8.29974 35.4996 3.59974 31.5996 2.59974 26.1996L0.29974 13.8996C0.19974 13.2996 0.29974 12.7996 0.69974 12.2996C0.99974 11.7996 1.49974 11.4996 2.09974 11.4996L7.19974 11.0996C7.79974 11.0996 8.49974 11.2996 8.89974 11.7996L16.2997 20.6996L57.9997 21.0996C63.1997 21.0996 67.0997 27.0996 67.4997 27.7996C67.5997 27.9996 67.6997 28.1996 67.7997 28.3996C68.5997 31.3996 66.8997 34.5996 63.9997 35.7996L62.9997 36.1996C62.6997 36.1996 62.4997 36.2996 62.1997 36.2996Z" fill="#1D4F84"/>
<path d="M40.4996 24.9998C39.8996 24.9998 39.2996 24.6998 38.8996 24.1998L30.1996 12.8998H27.8996L31.6996 22.0998C32.0996 23.0998 31.5996 24.2998 30.5996 24.6998C29.5996 25.0998 28.3996 24.5998 27.9996 23.5998L22.9996 11.5998C22.6996 10.9998 22.7996 10.2998 23.1996 9.6998C23.5996 9.1998 24.1996 8.7998 24.8996 8.7998L31.1996 8.8998C31.7996 8.8998 32.3996 9.1998 32.7996 9.6998L42.1996 21.6998C42.8996 22.5998 42.6996 23.7998 41.8996 24.4998C41.3996 24.7998 40.9996 24.9998 40.4996 24.9998Z" fill="#1D4F84"/>
<path d="M31.0002 47.4999C30.9002 47.4999 30.9002 47.4999 31.0002 47.4999L24.5002 47.3999C23.8002 47.3999 23.2002 46.9999 22.8002 46.3999C22.4002 45.7999 22.4002 45.0999 22.7002 44.4999L28.4002 32.8999C28.9002 31.8999 30.1002 31.4999 31.1002 31.9999C32.1002 32.4999 32.5002 33.6999 32.0002 34.6999L27.7002 43.4999H30.0002L37.8002 32.7999C38.4002 31.8999 39.7002 31.6999 40.6002 32.3999C41.5002 32.9999 41.7002 34.2999 41.0002 35.1999L32.6002 46.7999C32.2002 47.1999 31.6002 47.4999 31.0002 47.4999Z" fill="#1D4F84"/>
<g opacity="0.7">
<path opacity="0.7" d="M47.9004 29.1002H46.9004C46.3004 29.1002 45.9004 28.6002 45.9004 28.1002C45.9004 27.6002 46.4004 27.1002 46.9004 27.1002H47.9004C48.5004 27.1002 48.9004 27.6002 48.9004 28.1002C48.9004 28.7002 48.4004 29.1002 47.9004 29.1002ZM43.9004 29.1002H42.9004C42.3004 29.1002 41.9004 28.6002 41.9004 28.1002C41.9004 27.6002 42.4004 27.1002 42.9004 27.1002H43.9004C44.5004 27.1002 44.9004 27.6002 44.9004 28.1002C44.9004 28.6002 44.4004 29.1002 43.9004 29.1002ZM39.9004 29.0002H38.9004C38.3004 29.0002 37.9004 28.5002 37.9004 28.0002C37.9004 27.5002 38.4004 27.0002 38.9004 27.0002H39.9004C40.5004 27.0002 40.9004 27.5002 40.9004 28.0002C40.9004 28.6002 40.4004 29.0002 39.9004 29.0002ZM35.9004 29.0002H34.9004C34.3004 29.0002 33.9004 28.5002 33.9004 28.0002C33.9004 27.5002 34.4004 27.0002 34.9004 27.0002H35.9004C36.5004 27.0002 36.9004 27.5002 36.9004 28.0002C36.9004 28.5002 36.4004 29.0002 35.9004 29.0002ZM31.9004 28.9002H30.9004C30.3004 28.9002 29.9004 28.4002 29.9004 27.9002C29.9004 27.4002 30.4004 26.9002 30.9004 26.9002H31.9004C32.5004 26.9002 32.9004 27.4002 32.9004 27.9002C32.9004 28.5002 32.4004 28.9002 31.9004 28.9002ZM27.9004 28.9002H26.9004C26.3004 28.9002 25.9004 28.4002 25.9004 27.9002C25.9004 27.3002 26.4004 26.9002 26.9004 26.9002H27.9004C28.5004 26.9002 28.9004 27.4002 28.9004 27.9002C28.9004 28.4002 28.4004 28.9002 27.9004 28.9002ZM23.9004 28.8002H22.9004C22.3004 28.8002 21.9004 28.3002 21.9004 27.8002C21.9004 27.3002 22.4004 26.8002 22.9004 26.8002H23.9004C24.5004 26.8002 24.9004 27.3002 24.9004 27.8002C24.9004 28.4002 24.4004 28.8002 23.9004 28.8002ZM19.9004 28.7002H18.9004C18.3004 28.7002 17.9004 28.2002 17.9004 27.7002C17.9004 27.2002 18.3004 26.7002 18.9004 26.7002H19.9004C20.5004 26.7002 20.9004 27.2002 20.9004 27.7002C20.9004 28.3002 20.4004 28.7002 19.9004 28.7002Z" fill="#1D4F84"/>
</g>
<g opacity="0.7">
<path opacity="0.7" d="M59.6002 29.3998L54.7002 29.2998C54.1002 29.2998 53.7002 28.7998 53.7002 28.2998C53.7002 27.6998 54.2002 27.2998 54.7002 27.2998L59.6002 27.3998C60.2002 27.3998 60.6002 27.8998 60.6002 28.3998C60.6002 28.9998 60.1002 29.3998 59.6002 29.3998Z" fill="#1D4F84"/>
</g>
<path d="M1.90015 60C1.50015 60 1.10015 59.7 1.00015 59.3C0.800146 58.8 1.10015 58.2 1.60015 58L2.10015 57.8C2.60015 57.6 3.20015 57.9 3.40015 58.4C3.60015 58.9 3.30015 59.5 2.80015 59.7L2.30015 59.9C2.20015 60 2.00015 60 1.90015 60Z" fill="#1D4F84"/>
<path d="M57.5003 59.2999C57.4003 59.2999 57.3003 59.2999 57.2003 59.1999C56.9003 59.0999 56.6003 58.9999 56.3003 58.8999C55.8003 58.6999 55.5003 58.1999 55.7003 57.5999C55.9003 57.0999 56.4003 56.7999 57.0003 56.9999C57.3003 57.0999 57.6003 57.1999 58.0003 57.2999C58.5003 57.4999 58.8003 57.9999 58.6003 58.5999C58.3003 59.0999 57.9003 59.2999 57.5003 59.2999ZM5.20034 58.7999C4.80034 58.7999 4.40034 58.4999 4.20034 58.0999C4.00034 57.5999 4.30034 56.9999 4.80034 56.7999C5.10034 56.6999 5.40034 56.5999 5.80034 56.4999C6.30034 56.2999 6.90034 56.5999 7.00034 57.1999C7.20034 57.6999 6.90034 58.2999 6.30034 58.3999C6.00034 58.4999 5.70034 58.5999 5.40034 58.6999C5.50034 58.7999 5.30034 58.7999 5.20034 58.7999ZM53.7003 58.0999C53.6003 58.0999 53.5003 58.0999 53.4003 58.0999C53.1003 57.9999 52.8003 57.8999 52.4003 57.7999C51.9003 57.6999 51.6003 57.0999 51.7003 56.5999C51.8003 56.0999 52.4003 55.7999 52.9003 55.8999C53.2003 55.9999 53.6003 56.0999 53.9003 56.1999C54.4003 56.3999 54.7003 56.8999 54.6003 57.3999C54.5003 57.7999 54.1003 58.0999 53.7003 58.0999ZM9.10034 57.6999C8.70034 57.6999 8.30034 57.3999 8.10034 56.9999C8.00034 56.4999 8.30034 55.8999 8.80034 55.7999C9.10034 55.6999 9.50034 55.5999 9.80034 55.4999C10.3003 55.3999 10.9003 55.6999 11.0003 56.1999C11.1003 56.6999 10.8003 57.2999 10.3003 57.3999C10.0003 57.4999 9.70034 57.5999 9.30034 57.5999C9.30034 57.6999 9.20034 57.6999 9.10034 57.6999ZM49.8003 57.0999C49.7003 57.0999 49.6003 57.0999 49.6003 57.0999C49.3003 56.9999 49.0003 56.9999 48.6003 56.8999C48.1003 56.7999 47.7003 56.1999 47.8003 55.6999C47.9003 55.1999 48.5003 54.7999 49.0003 54.8999C49.3003 54.9999 49.7003 54.9999 50.0003 55.0999C50.5003 55.1999 50.9003 55.7999 50.7003 56.2999C50.7003 56.7999 50.2003 57.0999 49.8003 57.0999ZM13.0003 56.7999C12.5003 56.7999 12.1003 56.4999 12.0003 55.9999C11.9003 55.4999 12.2003 54.8999 12.8003 54.7999C13.1003 54.6999 13.5003 54.6999 13.8003 54.5999C14.4003 54.4999 14.9003 54.7999 15.0003 55.3999C15.1003 55.8999 14.8003 56.4999 14.2003 56.5999C13.9003 56.6999 13.6003 56.6999 13.2003 56.7999C13.1003 56.7999 13.1003 56.7999 13.0003 56.7999ZM45.9003 56.2999C45.8003 56.2999 45.8003 56.2999 45.7003 56.2999C45.4003 56.1999 45.1003 56.1999 44.7003 56.0999C44.2003 55.9999 43.8003 55.4999 43.9003 54.8999C44.0003 54.3999 44.5003 53.9999 45.1003 54.0999C45.4003 54.1999 45.8003 54.1999 46.1003 54.2999C46.6003 54.3999 47.0003 54.8999 46.9003 55.4999C46.8003 55.9999 46.3003 56.2999 45.9003 56.2999ZM16.9003 55.9999C16.4003 55.9999 16.0003 55.6999 15.9003 55.1999C15.8003 54.6999 16.2003 54.0999 16.7003 54.0999C17.0003 53.9999 17.4003 53.9999 17.7003 53.8999C18.3003 53.7999 18.8003 54.1999 18.8003 54.6999C18.9003 55.1999 18.5003 55.7999 18.0003 55.7999C17.7003 55.7999 17.3003 55.8999 17.0003 55.9999C17.0003 55.9999 17.0003 55.9999 16.9003 55.9999ZM41.9003 55.6999H41.8003L40.8003 55.5999C40.3003 55.4999 39.9003 54.9999 39.9003 54.4999C40.0003 53.9999 40.5003 53.5999 41.0003 53.5999L42.0003 53.6999C42.5003 53.7999 42.9003 54.2999 42.9003 54.7999C42.8003 55.2999 42.4003 55.6999 41.9003 55.6999ZM20.9003 55.4999C20.4003 55.4999 20.0003 55.0999 19.9003 54.5999C19.8003 54.0999 20.2003 53.5999 20.8003 53.4999C21.1003 53.4999 21.5003 53.3999 21.8003 53.3999C22.4003 53.3999 22.8003 53.6999 22.9003 54.2999C23.0003 54.7999 22.6003 55.2999 22.0003 55.3999C21.7003 55.3999 21.3003 55.4999 21.0003 55.4999H20.9003ZM37.9003 55.1999L36.8003 55.0999C36.2003 55.0999 35.8003 54.5999 35.9003 53.9999C36.0003 53.3999 36.4003 52.9999 37.0003 53.0999L38.0003 53.1999C38.5003 53.1999 39.0003 53.6999 38.9003 54.2999C38.9003 54.7999 38.4003 55.1999 37.9003 55.1999ZM24.9003 55.0999C24.4003 55.0999 23.9003 54.6999 23.9003 54.1999C23.9003 53.5999 24.3003 53.1999 24.8003 53.0999L25.8003 52.9999C26.3003 52.9999 26.8003 53.3999 26.9003 53.8999C26.9003 54.4999 26.5003 54.8999 26.0003 54.9999L24.9003 55.0999ZM33.9003 54.9999C33.5003 54.9999 33.2003 54.9999 32.9003 54.9999C32.3003 54.9999 31.9003 54.4999 31.9003 53.9999C31.9003 53.4999 32.4003 52.9999 32.9003 52.9999C33.2003 52.9999 33.6003 52.9999 33.9003 52.9999C34.5003 52.9999 34.9003 53.4999 34.9003 53.9999C34.9003 54.4999 34.5003 54.9999 33.9003 54.9999ZM28.9003 54.8999C28.4003 54.8999 27.9003 54.4999 27.9003 53.8999C27.9003 53.2999 28.3003 52.8999 28.9003 52.8999C29.2003 52.8999 29.6003 52.8999 29.9003 52.8999C30.5003 52.8999 30.9003 53.2999 30.9003 53.8999C30.9003 54.4999 30.5003 54.8999 29.9003 54.8999C29.6003 54.8999 29.3003 54.8999 28.9003 54.8999Z" fill="#1D4F84"/>
<path d="M60.8005 60.5C60.7005 60.5 60.6005 60.5 60.4005 60.4L60.0005 60.3C59.5005 60.1 59.2005 59.5 59.4005 59C59.6005 58.5 60.2005 58.2 60.7005 58.4L61.2005 58.6C61.7005 58.8 62.0005 59.4 61.8005 59.9C61.6005 60.3 61.2005 60.5 60.8005 60.5Z" fill="#1D4F84"/>
<path d="M2.70011 60.7C1.70011 61.1 0.600115 60.5 0.300115 59.6C-0.0998851 58.6 0.500115 57.5 1.40011 57.2C2.40012 56.8 3.50011 57.4 3.80011 58.3C4.10011 59.2 3.60011 60.4 2.70011 60.7Z" fill="#1D4F84"/>
<path d="M59.9997 61.2997C60.9997 61.6997 62.0997 61.1997 62.3997 60.1997C62.7997 59.1997 62.2997 58.0997 61.2997 57.7997C60.2997 57.3997 59.1997 57.8997 58.8997 58.8997C58.5997 59.7997 59.0997 60.8997 59.9997 61.2997Z" fill="#1D4F84"/>
<path d="M61.6 65.3001C65.5212 65.3001 68.7 62.1213 68.7 58.2001C68.7 54.2789 65.5212 51.1001 61.6 51.1001C57.6788 51.1001 54.5 54.2789 54.5 58.2001C54.5 62.1213 57.6788 65.3001 61.6 65.3001Z" fill="#F05361"/>
<path d="M2.3 61.1C3.57025 61.1 4.6 60.0703 4.6 58.8C4.6 57.5297 3.57025 56.5 2.3 56.5C1.02974 56.5 0 57.5297 0 58.8C0 60.0703 1.02974 61.1 2.3 61.1Z" fill="#1D4F84"/>
<path d="M61.6 66.3001C57.1 66.3001 53.5 62.7001 53.5 58.2001C53.5 53.7001 57.1 50.1001 61.6 50.1001C66.1 50.1001 69.7 53.7001 69.7 58.2001C69.7 62.7001 66 66.3001 61.6 66.3001ZM61.6 52.1001C58.2 52.1001 55.5 54.8001 55.5 58.2001C55.5 61.6001 58.2 64.3001 61.6 64.3001C65 64.3001 67.7 61.6001 67.7 58.2001C67.7 54.8001 64.9 52.1001 61.6 52.1001Z" fill="#1D4F84"/>
</svg>
