<svg width="70" height="70" viewBox="0 0 70 70" fill="none" xmlns="http://www.w3.org/2000/svg">
<path d="M66.4777 3.38721H33.8486V57.8179H66.4777V3.38721Z" fill="#FDD600"/>
<path d="M66.4885 58.947H33.8595C33.2385 58.947 32.7305 58.4389 32.7305 57.818V3.38733C32.7305 2.76637 33.2385 2.2583 33.8595 2.2583H66.4885C67.1095 2.2583 67.6176 2.76637 67.6176 3.38733V57.818C67.6176 58.4389 67.1095 58.947 66.4885 58.947ZM34.9772 56.6889H65.3482V4.51637H34.9772V56.6889Z" fill="#FDD600"/>
<path d="M59.8045 7.49707H29.2529V18.5729H59.8045V7.49707Z" fill="#F05361"/>
<path d="M42.011 68.8711H4.23362C3.13846 68.8711 2.25781 67.9792 2.25781 66.8953V22.6711C2.25781 21.576 3.13846 20.6953 4.23362 20.6953H42.011C43.1062 20.6953 43.9868 21.576 43.9868 22.6711V66.8953C43.9868 67.9792 43.0949 68.8711 42.011 68.8711ZM6.20943 64.9195H40.0352V24.6469H6.20943V64.9195Z" fill="#1D4F84"/>
<path d="M41.4014 24.6469H4.8433C3.42072 24.6469 2.25781 23.484 2.25781 22.0614C2.25781 17.7034 5.80297 14.1582 10.161 14.1582H23.6078C24.703 14.1582 25.5836 15.0388 25.5836 16.134C25.5836 17.2292 24.703 18.1098 23.6078 18.1098H10.161C8.4562 18.1098 7.01104 19.1937 6.44652 20.6953H41.3901C42.4852 20.6953 43.3659 21.5759 43.3659 22.6711C43.3659 23.7663 42.4852 24.6469 41.4014 24.6469Z" fill="#1D4F84"/>
<path d="M23.1222 50.3323C17.5222 50.3323 12.9609 45.7711 12.9609 40.1711C12.9609 34.5711 17.5222 30.0098 23.1222 30.0098C28.7222 30.0098 33.2835 34.5711 33.2835 40.1711C33.2835 45.7711 28.7222 50.3323 23.1222 50.3323ZM23.1222 33.3969C19.3851 33.3969 16.348 36.434 16.348 40.1711C16.348 43.9082 19.3851 46.9452 23.1222 46.9452C26.8593 46.9452 29.8964 43.9082 29.8964 40.1711C29.8964 36.434 26.8593 33.3969 23.1222 33.3969Z" fill="#1D4F84"/>
<path d="M23.1223 50.3323C22.1852 50.3323 21.4287 49.5759 21.4287 48.6388V31.7033C21.4287 30.7662 22.1852 30.0098 23.1223 30.0098C24.0594 30.0098 24.8158 30.7662 24.8158 31.7033V48.6388C24.8158 49.5759 24.0594 50.3323 23.1223 50.3323Z" fill="#1D4F84"/>
<path d="M31.59 41.8646H14.6545C13.7174 41.8646 12.9609 41.1082 12.9609 40.1711C12.9609 39.234 13.7174 38.4775 14.6545 38.4775H31.59C32.5271 38.4775 33.2835 39.234 33.2835 40.1711C33.2835 41.1082 32.5271 41.8646 31.59 41.8646Z" fill="#1D4F84"/>
<path d="M35.2143 60.1664H11.0305C10.0934 60.1664 9.33691 59.4099 9.33691 58.4728C9.33691 57.5357 10.0934 56.7793 11.0305 56.7793H35.2143C36.1514 56.7793 36.9079 57.5357 36.9079 58.4728C36.9079 59.4099 36.1514 60.1664 35.2143 60.1664Z" fill="#1D4F84"/>
<g opacity="0.7">
<path opacity="0.7" d="M24.3872 49.4178C24.1614 49.4178 23.9356 49.35 23.7436 49.2145C23.2356 48.8532 23.1114 48.1532 23.4726 47.6452C29.2646 39.4145 23.6081 32.8661 23.5517 32.7984C23.1339 32.3355 23.1791 31.6242 23.642 31.2065C24.1049 30.7887 24.8162 30.8339 25.2339 31.2968C25.3017 31.3758 32.1097 39.2678 25.313 48.9323C25.0985 49.2484 24.7485 49.4178 24.3872 49.4178Z" fill="#1D4F84"/>
</g>
<g opacity="0.7">
<path opacity="0.7" d="M22.0838 49.4177C21.7338 49.4177 21.3838 49.2483 21.1579 48.9435C14.3612 39.2677 21.1692 31.3871 21.237 31.308C21.6547 30.8451 22.366 30.8 22.8289 31.2177C23.2918 31.6354 23.337 32.3467 22.9305 32.8096C22.6934 33.0806 17.2515 39.4709 23.0096 47.6564C23.3708 48.1645 23.2467 48.8758 22.7386 49.2258C22.5354 49.35 22.3096 49.4177 22.0838 49.4177Z" fill="#1D4F84"/>
</g>
<path d="M59.7932 65.3826H42.011C40.9158 65.3826 40.0352 64.5019 40.0352 63.4068C40.0352 62.3116 40.9158 61.431 42.011 61.431H57.8287V21.4068C57.8287 20.9439 57.4448 20.56 56.9819 20.56C55.8868 20.56 55.0061 19.6794 55.0061 18.5842C55.0061 17.489 55.8868 16.6084 56.9819 16.6084C59.6239 16.6084 61.7803 18.7649 61.7803 21.4068V63.4181C61.769 64.5019 60.8884 65.3826 59.7932 65.3826Z" fill="#1D4F84"/>
<path d="M29.2531 24.6472C28.158 24.6472 27.2773 23.7665 27.2773 22.6714V21.3956C27.2773 18.7536 29.4338 16.5972 32.0757 16.5972C33.1709 16.5972 34.0515 17.4778 34.0515 18.573C34.0515 19.6681 33.1709 20.5488 32.0757 20.5488C31.6128 20.5488 31.229 20.9327 31.229 21.3956V22.6714C31.229 23.7665 30.3483 24.6472 29.2531 24.6472Z" fill="#1D4F84"/>
<g opacity="0.7">
<g opacity="0.7">
<path opacity="0.7" d="M35.0559 19.7131H34.4913C33.8704 19.7131 33.3623 19.2051 33.3623 18.5841C33.3623 17.9631 33.8704 17.4551 34.4913 17.4551H35.0559C35.6768 17.4551 36.1849 17.9631 36.1849 18.5841C36.1849 19.2051 35.6768 19.7131 35.0559 19.7131Z" fill="#1D4F84"/>
</g>
<g opacity="0.7">
<path opacity="0.7" d="M51.1333 19.7131H50.1285C49.5075 19.7131 48.9995 19.2051 48.9995 18.5841C48.9995 17.9631 49.5075 17.4551 50.1285 17.4551H51.1333C51.7543 17.4551 52.2624 17.9631 52.2624 18.5841C52.2624 19.2051 51.7656 19.7131 51.1333 19.7131ZM47.114 19.7131H46.1092C45.4882 19.7131 44.9801 19.2051 44.9801 18.5841C44.9801 17.9631 45.4882 17.4551 46.1092 17.4551H47.114C47.735 17.4551 48.243 17.9631 48.243 18.5841C48.243 19.2051 47.735 19.7131 47.114 19.7131ZM43.0946 19.7131H42.0898C41.4688 19.7131 40.9608 19.2051 40.9608 18.5841C40.9608 17.9631 41.4688 17.4551 42.0898 17.4551H43.0946C43.7156 17.4551 44.2237 17.9631 44.2237 18.5841C44.2237 19.2051 43.7156 19.7131 43.0946 19.7131ZM39.0753 19.7131H38.0704C37.4495 19.7131 36.9414 19.2051 36.9414 18.5841C36.9414 17.9631 37.4495 17.4551 38.0704 17.4551H39.0753C39.6962 17.4551 40.2043 17.9631 40.2043 18.5841C40.2043 19.2051 39.6962 19.7131 39.0753 19.7131Z" fill="#1D4F84"/>
</g>
<g opacity="0.7">
<path opacity="0.7" d="M54.7121 19.7131H54.1476C53.5266 19.7131 53.0186 19.2051 53.0186 18.5841C53.0186 17.9631 53.5266 17.4551 54.1476 17.4551H54.7121C55.3331 17.4551 55.8411 17.9631 55.8411 18.5841C55.8411 19.2051 55.3444 19.7131 54.7121 19.7131Z" fill="#1D4F84"/>
</g>
</g>
<path d="M56.9709 20.5597C55.8757 20.5597 54.9951 19.6791 54.9951 18.5839C54.9951 17.4887 55.8757 16.6081 56.9709 16.6081C57.4338 16.6081 57.8177 16.2242 57.8177 15.7613V9.47261H31.229V15.75C31.229 16.2129 31.6128 16.5968 32.0757 16.5968C33.1709 16.5968 34.0515 17.4774 34.0515 18.5726C34.0515 19.6678 33.1709 20.5484 32.0757 20.5484C29.4338 20.5484 27.2773 18.392 27.2773 15.75V7.4968C27.2773 6.40164 28.158 5.521 29.2532 5.521H59.8048C60.8999 5.521 61.7806 6.40164 61.7806 7.4968V15.75C61.7693 18.4033 59.6241 20.5597 56.9709 20.5597Z" fill="#1D4F84"/>
<path d="M53.3009 57.8179C52.6799 57.8179 52.1719 57.3099 52.1719 56.6889V23.755C52.1719 23.134 52.6799 22.626 53.3009 22.626C53.9219 22.626 54.4299 23.134 54.4299 23.755V56.6889C54.4299 57.3099 53.9332 57.8179 53.3009 57.8179Z" fill="#1D4F84"/>
<path d="M47.6564 57.8179C47.0354 57.8179 46.5273 57.3099 46.5273 56.6889V23.755C46.5273 23.134 47.0354 22.626 47.6564 22.626C48.2773 22.626 48.7854 23.134 48.7854 23.755V56.6889C48.7854 57.3099 48.2773 57.8179 47.6564 57.8179Z" fill="#1D4F84"/>
<path d="M37.3139 14.9036H34.4913C33.8704 14.9036 33.3623 14.3955 33.3623 13.7745C33.3623 13.1536 33.8704 12.6455 34.4913 12.6455H37.3139C37.9349 12.6455 38.443 13.1536 38.443 13.7745C38.443 14.3955 37.9349 14.9036 37.3139 14.9036Z" fill="#1D4F84"/>
<path d="M47.9156 14.9036H41.2882C40.6672 14.9036 40.1592 14.3955 40.1592 13.7745C40.1592 13.1536 40.6672 12.6455 41.2882 12.6455H47.9156C48.5366 12.6455 49.0447 13.1536 49.0447 13.7745C49.0447 14.3955 48.5479 14.9036 47.9156 14.9036Z" fill="#1D4F84"/>
<path d="M54.7124 14.9036H51.8898C51.2688 14.9036 50.7607 14.3955 50.7607 13.7745C50.7607 13.1536 51.2688 12.6455 51.8898 12.6455H54.7124C55.3333 12.6455 55.8414 13.1536 55.8414 13.7745C55.8414 14.3955 55.3446 14.9036 54.7124 14.9036Z" fill="#1D4F84"/>
</svg>
